<?xml version="1.0" encoding="UTF-8" standalone="no" ?>
<!DOCTYPE svg PUBLIC "-//W3C//DTD SVG 1.1//EN" "http://www.w3.org/Graphics/SVG/1.1/DTD/svg11.dtd">
<svg xmlns="http://www.w3.org/2000/svg" xmlns:xlink="http://www.w3.org/1999/xlink" version="1.1" width="350" height="350" viewBox="0 0 350 350" xml:space="preserve">
<desc>Created with Fabric.js 1.7.22</desc>
<defs>
</defs>
<g id="icon" style="stroke: none; stroke-width: 1; stroke-dasharray: none; stroke-linecap: butt; stroke-linejoin: miter; stroke-miterlimit: 10; fill: none; fill-rule: nonzero; opacity: 1;" transform="translate(-1.9444444444444287 -1.9444444444444287) scale(3.89 3.89)" >
	<path d="M 15.05 35.268 c -0.243 0 -0.491 -0.044 -0.73 -0.139 c -1.028 -0.404 -1.534 -1.565 -1.131 -2.593 c 3.723 -9.479 11.395 -16.759 21.049 -19.974 c 1.046 -0.351 2.18 0.218 2.529 1.266 c 0.349 1.048 -0.218 2.181 -1.266 2.529 c -8.526 2.839 -15.302 9.269 -18.589 17.641 C 16.603 34.786 15.849 35.268 15.05 35.268 z" style="stroke: none; stroke-width: 1; stroke-dasharray: none; stroke-linecap: butt; stroke-linejoin: miter; stroke-miterlimit: 10; fill: rgb(254,206,70); fill-rule: nonzero; opacity: 1;" transform=" matrix(1 0 0 1 0 0) " stroke-linecap="round" />
	<path d="M 45.059 79.272 c -1.104 0 -2 -0.896 -2 -2 s 0.896 -2 2 -2 c 16.667 0 30.228 -13.561 30.228 -30.229 c 0 -1.104 0.896 -2 2 -2 s 2 0.896 2 2 C 79.287 63.918 63.933 79.272 45.059 79.272 z" style="stroke: none; stroke-width: 1; stroke-dasharray: none; stroke-linecap: butt; stroke-linejoin: miter; stroke-miterlimit: 10; fill: rgb(254,206,70); fill-rule: nonzero; opacity: 1;" transform=" matrix(1 0 0 1 0 0) " stroke-linecap="round" />
	<path d="M 45 90 C 20.187 90 0 69.813 0 45 C 0 20.187 20.187 0 45 0 c 6.984 0 13.681 1.557 19.9 4.628 c 0.99 0.489 1.396 1.688 0.907 2.679 c -0.488 0.99 -1.687 1.397 -2.679 0.908 C 57.465 5.418 51.365 4 45 4 C 22.393 4 4 22.393 4 45 s 18.393 41 41 41 s 41 -18.393 41 -41 c 0 -7.9 -2.251 -15.569 -6.509 -22.177 c -0.599 -0.929 -0.331 -2.167 0.598 -2.765 c 0.929 -0.597 2.166 -0.331 2.765 0.598 C 87.528 27.912 90 36.33 90 45 C 90 69.813 69.813 90 45 90 z" style="stroke: none; stroke-width: 1; stroke-dasharray: none; stroke-linecap: butt; stroke-linejoin: miter; stroke-miterlimit: 10; fill: rgb(254,206,70); fill-rule: nonzero; opacity: 1;" transform=" matrix(1 0 0 1 0 0) " stroke-linecap="round" />
	<path d="M 79.113 10.97 h -2.936 V 8.034 c 0 -1.104 -0.896 -2 -2 -2 s -2 0.896 -2 2 v 2.936 h -2.936 c -1.104 0 -2 0.896 -2 2 s 0.896 2 2 2 h 2.936 v 2.936 c 0 1.104 0.896 2 2 2 s 2 -0.896 2 -2 V 14.97 h 2.936 c 1.104 0 2 -0.896 2 -2 S 80.218 10.97 79.113 10.97 z" style="stroke: none; stroke-width: 1; stroke-dasharray: none; stroke-linecap: butt; stroke-linejoin: miter; stroke-miterlimit: 10; fill: rgb(254,206,70); fill-rule: nonzero; opacity: 1;" transform=" matrix(1 0 0 1 0 0) " stroke-linecap="round" />
	<path d="M 59.975 51.809 H 34.854 l 4.738 -4.738 c 0.781 -0.781 0.781 -2.047 0 -2.828 c -0.78 -0.781 -2.048 -0.781 -2.828 0 l -8.151 8.151 c -0.094 0.093 -0.177 0.196 -0.251 0.307 c -0.032 0.047 -0.053 0.099 -0.081 0.148 c -0.036 0.065 -0.075 0.127 -0.103 0.196 c -0.027 0.065 -0.042 0.133 -0.062 0.2 c -0.017 0.058 -0.039 0.113 -0.051 0.173 c -0.051 0.258 -0.051 0.525 0 0.783 c 0.012 0.06 0.034 0.115 0.051 0.173 c 0.02 0.067 0.035 0.135 0.062 0.2 c 0.028 0.069 0.067 0.131 0.103 0.196 c 0.027 0.049 0.049 0.101 0.081 0.148 c 0.074 0.11 0.157 0.213 0.251 0.307 l 8.151 8.151 c 0.39 0.391 0.902 0.586 1.414 0.586 s 1.024 -0.195 1.414 -0.586 c 0.781 -0.781 0.781 -2.047 0 -2.828 l -4.738 -4.738 h 25.121 c 1.104 0 2 -0.896 2 -2 S 61.079 51.809 59.975 51.809 z" style="stroke: none; stroke-width: 1; stroke-dasharray: none; stroke-linecap: butt; stroke-linejoin: miter; stroke-miterlimit: 10; fill: rgb(14,49,69); fill-rule: nonzero; opacity: 1;" transform=" matrix(1 0 0 1 0 0) " stroke-linecap="round" />
	<path d="M 61.636 36.921 c 0.018 -0.027 0.029 -0.057 0.046 -0.084 c 0.051 -0.084 0.1 -0.168 0.138 -0.259 c 0.016 -0.038 0.023 -0.079 0.037 -0.118 c 0.029 -0.084 0.06 -0.166 0.077 -0.255 c 0.026 -0.129 0.04 -0.262 0.04 -0.395 s -0.014 -0.266 -0.04 -0.395 c -0.018 -0.088 -0.049 -0.171 -0.077 -0.255 c -0.014 -0.039 -0.021 -0.08 -0.037 -0.118 c -0.038 -0.091 -0.088 -0.176 -0.138 -0.259 c -0.016 -0.027 -0.028 -0.058 -0.046 -0.084 c -0.073 -0.109 -0.156 -0.211 -0.249 -0.303 l -8.151 -8.151 c -0.781 -0.781 -2.047 -0.781 -2.828 0 c -0.781 0.781 -0.781 2.047 0 2.828 l 4.738 4.738 H 30.025 c -1.104 0 -2 0.896 -2 2 s 0.896 2 2 2 h 25.121 l -4.738 4.738 c -0.781 0.781 -0.781 2.047 0 2.828 c 0.391 0.391 0.902 0.586 1.414 0.586 s 1.023 -0.195 1.414 -0.586 l 8.151 -8.151 C 61.48 37.132 61.563 37.03 61.636 36.921 z" style="stroke: none; stroke-width: 1; stroke-dasharray: none; stroke-linecap: butt; stroke-linejoin: miter; stroke-miterlimit: 10; fill: rgb(14,49,69); fill-rule: nonzero; opacity: 1;" transform=" matrix(1 0 0 1 0 0) " stroke-linecap="round" />
</g>
</svg>